# xmcd
#
# Track frame offsets:
#	180
#	20681
#	36936
#	53215
#	69461
#	77239
#	88465
#	106513
#	123777
#	136781
#	154388
#	166407
#	181706
#	204249
#	226069
#	240109
#	263646
#
# Disc length: 3711 seconds
# Revision: 0
# Processed by: cddbd v1.5.2PL0 Copyright (c) Steve Scherf et al.
# Submitted via: dBpowerAMP V12.0
#
DISCID=cf0e7d11
DTITLE=Dennis Agajanian - Best Picks
DYEAR=1994
DGENRE=Gospel/Christian
TTITLE0=Lord, Give Us America
TTITLE1=Godly Man
TTITLE2=Colleen's Pirouette
TTITLE3=Open Your Eyes
TTITLE4=Balm In Gilead
TTITLE5=The Christian Life
TTITLE6=Jesu, Joy of Man's Desiring
TTITLE7=Truth Is Truth
TTITLE8=It's Bible Time
TTITLE9=Thinkin' About Home
TTITLE10=Milk And Honey Express
TTITLE11=Down The Road
TTITLE12=Rebel To The Wrong
TTITLE13=Love Has A Way
TTITLE14=Hallelujah Chorus
TTITLE15=Sundown/Never Alone
TTITLE16=I'd Rather Have Jesus
EXTD=
EXTT0=
EXTT1=
EXTT2=
EXTT3=
EXTT4=
EXTT5=
EXTT6=
EXTT7=
EXTT8=
EXTT9=
EXTT10=
EXTT11=
EXTT12=
EXTT13=
EXTT14=
EXTT15=
EXTT16=
PLAYORDER=
